<svg width="29" height="25" viewBox="0 0 29 25" fill="none" xmlns="http://www.w3.org/2000/svg">
<path d="M11.2511 1.62497C9.06839 0.547017 6.0176 0.0189757 1.93317 0.000228662C1.54797 -0.0051848 1.17033 0.111004 0.850599 0.333301C0.588164 0.51679 0.373338 0.764175 0.225018 1.0537C0.0766974 1.34322 -0.00057292 1.666 3.19811e-06 1.99366V19.8721C3.19811e-06 21.0806 0.831267 21.9924 1.93317 21.9924C6.22663 21.9924 10.5334 22.4073 13.1129 24.9294C13.1482 24.9641 13.1926 24.9872 13.2405 24.996C13.2884 25.0048 13.3378 24.9989 13.3824 24.9789C13.4271 24.9589 13.4651 24.9258 13.4917 24.8837C13.5184 24.8416 13.5324 24.7923 13.5322 24.7419V3.6759C13.5323 3.53377 13.5029 3.39329 13.446 3.26393C13.3891 3.13456 13.306 3.01934 13.2024 2.92602C12.6115 2.4035 11.9551 1.96586 11.2511 1.62497ZM28.147 0.331426C27.8271 0.109683 27.4494 -0.0058576 27.0644 0.000228662C22.98 0.0189757 19.9292 0.544518 17.7465 1.62497C17.0425 1.96524 16.386 2.40201 15.7946 2.92352C15.6912 3.01697 15.6083 3.13224 15.5515 3.26158C15.4947 3.39093 15.4654 3.53134 15.4654 3.6734V24.7407C15.4653 24.7891 15.4791 24.8364 15.505 24.8767C15.5308 24.917 15.5676 24.9485 15.6107 24.9672C15.6538 24.986 15.7013 24.9911 15.7473 24.9821C15.7932 24.973 15.8355 24.9501 15.8689 24.9163C17.4197 23.3228 20.1412 21.9905 27.0668 21.9911C27.5795 21.9911 28.0712 21.7804 28.4338 21.4054C28.7963 21.0304 29 20.5218 29 19.9914V1.99429C29.0007 1.66598 28.9233 1.34254 28.7745 1.05254C28.6257 0.762527 28.4102 0.514868 28.147 0.331426Z" fill="#1575FB"/>
</svg>
