<svg width="29" height="29" viewBox="0 0 29 29" fill="none" xmlns="http://www.w3.org/2000/svg">
<path d="M14.5 0C6.49187 0 0 6.49187 0 14.5C0 22.5081 6.49187 29 14.5 29C19.8749 29 24.5628 26.0733 27.0672 21.7288L21.9624 18.7923C20.4744 21.3731 17.6931 23.1147 14.5 23.1147C9.74224 23.1147 5.88531 19.2578 5.88531 14.5C5.88531 9.74224 9.74224 5.88531 14.5 5.88531C16.5394 5.88531 18.4085 6.59873 19.8826 7.78454L16.0753 10.4927L29 14.8027V1.29565L24.7909 4.29053C22.1638 1.64217 18.525 0 14.5 0Z" fill="#1575FB"/>
</svg>
