<svg width="55" height="55" viewBox="0 0 55 55" fill="none" xmlns="http://www.w3.org/2000/svg">
<rect width="55" height="55" rx="15" fill="white"/>
<path d="M50.9529 20.1384C51.2556 18.3699 50.0669 16.691 48.2979 16.3884L17.0682 11.047C15.2993 10.7445 13.6199 11.9328 13.3172 13.7013L10.5772 29.7118C10.2746 31.4802 11.4633 33.1591 13.2323 33.4617L44.4619 38.8031C46.2309 39.1056 47.9103 37.9173 48.213 36.1488L50.9529 20.1384Z" fill="#77AFFD" fill-opacity="0.5"/>
<path d="M49.6831 21.2603C49.8528 19.4742 48.542 17.8888 46.7553 17.7191L12.7876 14.4939C11.001 14.3243 9.41503 15.6347 9.24534 17.4209L7.55547 35.2082C7.38578 36.9943 8.69659 38.5798 10.4832 38.7494L44.451 41.9746C46.2376 42.1442 47.8236 40.8338 47.9932 39.0477L49.6831 21.2603Z" fill="#1575FB" fill-opacity="0.7"/>
<path d="M48.2445 22.0718C48.2445 20.2777 46.7896 18.8232 44.995 18.8232H9.24958C7.45489 18.8232 6 20.2777 6 22.0718V40.7514C6 42.5455 7.45489 44 9.24958 44H44.995C46.7896 44 48.2445 42.5455 48.2445 40.7514V22.0718Z" fill="#1575FB" fill-opacity="0.85"/>
<path d="M16.0105 33.2088V29.7635H18.3954V30.425H16.8198V31.153H18.2716V31.8145H16.8198V32.5474H18.4001V33.2088H16.0105Z" fill="#FDFDFE"/>
<path d="M21.2038 31.0055C21.1562 30.6534 20.904 30.4297 20.5184 30.4297C20.0091 30.4297 19.6996 30.8152 19.6996 31.4862C19.6996 32.1809 20.0186 32.5426 20.5136 32.5426C20.8849 32.5426 21.142 32.3427 21.2038 32.0049L22.0226 32.0096C21.9559 32.6235 21.4323 33.2564 20.4993 33.2564C19.5664 33.2564 18.8714 32.6187 18.8714 31.4862C18.8714 30.3488 19.5806 29.7159 20.4993 29.7159C21.3276 29.7159 21.9369 30.1823 22.0226 31.0055H21.2038Z" fill="#FDFDFE"/>
<path d="M25.726 31.4862C25.726 32.6235 25.0119 33.2564 24.0885 33.2564C23.1603 33.2564 22.451 32.6187 22.451 31.4862C22.451 30.3488 23.1603 29.7159 24.0885 29.7159C25.0119 29.7159 25.726 30.3488 25.726 31.4862ZM24.8977 31.4862C24.8977 30.8009 24.5931 30.4297 24.0885 30.4297C23.5839 30.4297 23.2793 30.8009 23.2793 31.4862C23.2793 32.1714 23.5839 32.5426 24.0885 32.5426C24.5931 32.5426 24.8977 32.1714 24.8977 31.4862Z" fill="#FDFDFE"/>
<path d="M29.1295 29.7635V33.2088H28.4392L27.0398 31.1864H27.016V33.2088H26.2067V29.7635H26.9065L28.2917 31.786H28.3202V29.7635H29.1295Z" fill="#FDFDFE"/>
<path d="M29.6531 33.2088V29.7635H31.9903V30.425H30.4623V31.153H31.838V31.8145H30.4623V33.2088H29.6531Z" fill="#FDFDFE"/>
<path d="M32.4092 33.2088V29.7635H33.2184V32.5474H34.6655V33.2088H32.4092Z" fill="#FDFDFE"/>
<path d="M35.8984 29.7635V33.2088H35.0891V29.7635H35.8984Z" fill="#FDFDFE"/>
<path d="M36.422 33.2088V29.7635H37.831C38.6069 29.7635 39.0829 30.2489 39.0829 30.9484C39.0829 31.6622 38.5973 32.1286 37.8072 32.1286H37.2312V33.2088H36.422ZM37.2312 31.4862H37.6596C38.0404 31.4862 38.2451 31.272 38.2451 30.9484C38.2451 30.6248 38.0404 30.4202 37.6596 30.4202H37.2312V31.4862Z" fill="#FDFDFE"/>
<path d="M45.8074 22.4779C45.8074 23.1507 45.2618 23.6961 44.5888 23.6961C43.9157 23.6961 43.3702 23.1507 43.3702 22.4779C43.3702 21.8051 43.9157 21.2597 44.5888 21.2597C45.2618 21.2597 45.8074 21.8051 45.8074 22.4779Z" fill="#FFC445"/>
</svg>
