<svg width="48" height="48" viewBox="0 0 48 48" fill="none" xmlns="http://www.w3.org/2000/svg">
<rect x="0.5" y="0.5" width="47" height="47" rx="23.5" fill="#9FC6FD"/>
<rect x="0.5" y="0.5" width="47" height="47" rx="23.5" stroke="#77AFFD"/>
<path fill-rule="evenodd" clip-rule="evenodd" d="M17.125 11C16.031 11 14.9818 11.4185 14.2082 12.1633C13.4346 12.9082 13 13.9184 13 14.9718V35.0134C12.9999 35.3613 13.0947 35.7031 13.2749 36.0046C13.4551 36.3061 13.7144 36.5568 14.0268 36.7315C14.3393 36.9062 14.6939 36.9988 15.0552 37C15.4165 37.0012 15.7718 36.9111 16.0855 36.7385L23.318 32.7588C23.5257 32.6445 23.7608 32.5844 24 32.5844C24.2392 32.5844 24.4743 32.6445 24.682 32.7588L31.9145 36.7385C32.2282 36.9111 32.5835 37.0012 32.9448 37C33.3061 36.9988 33.6607 36.9062 33.9732 36.7315C34.2856 36.5568 34.5449 36.3061 34.7251 36.0046C34.9053 35.7031 35.0001 35.3613 35 35.0134V14.9718C35 13.9184 34.5654 12.9082 33.7918 12.1633C33.0182 11.4185 31.969 11 30.875 11H17.125Z" fill="#3D8CFC"/>
</svg>
