<svg width="48" height="48" viewBox="0 0 48 48" fill="none" xmlns="http://www.w3.org/2000/svg">
<rect width="48" height="48" rx="24" fill="#9FC6FD"/>
<path d="M34.0656 22.6715C33.4589 21.3041 32.577 20.0767 31.475 19.0663L30.5656 18.2307C30.5347 18.2031 30.4976 18.1835 30.4574 18.1736C30.4172 18.1638 30.3752 18.164 30.3351 18.1742C30.295 18.1844 30.258 18.2043 30.2273 18.2321C30.1967 18.26 30.1734 18.2949 30.1594 18.3339L29.7531 19.5013C29.5 20.2336 29.0344 20.9815 28.375 21.717C28.3312 21.7639 28.2812 21.7764 28.2469 21.7796C28.2125 21.7827 28.1594 21.7764 28.1125 21.7326C28.0687 21.6951 28.0469 21.6387 28.05 21.5824C28.1656 19.6984 27.6031 17.5735 26.3719 15.2607C25.3531 13.3392 23.9375 11.8401 22.1687 10.7949L20.8781 10.0344C20.7094 9.93424 20.4937 10.0657 20.5031 10.2628L20.5719 11.765C20.6187 12.7915 20.5 13.6991 20.2187 14.4533C19.875 15.3765 19.3812 16.234 18.75 17.0039C18.3107 17.5389 17.8128 18.0229 17.2656 18.4466C15.9478 19.4611 14.8763 20.761 14.1312 22.249C13.388 23.75 13.0009 25.4025 13 27.0779C13 28.555 13.2906 29.9852 13.8656 31.3341C14.4208 32.6327 15.2221 33.8113 16.225 34.8047C17.2375 35.8062 18.4125 36.5948 19.7219 37.1425C21.0781 37.7121 22.5156 38 24 38C25.4844 38 26.9219 37.7121 28.2781 37.1456C29.5843 36.6012 30.772 35.8071 31.775 34.8079C32.7875 33.8064 33.5812 32.636 34.1344 31.3372C34.7085 29.9921 35.003 28.5439 35 27.081C35 25.5538 34.6875 24.0704 34.0656 22.6715Z" fill="#1575FB"/>
</svg>
