<svg width="37" height="33" viewBox="0 0 37 33" fill="none" xmlns="http://www.w3.org/2000/svg">
<path d="M7.33334 33C6.81389 33 6.37878 32.824 6.02801 32.472C5.67723 32.12 5.50123 31.6849 5.5 31.1667C5.49878 30.6485 5.67478 30.2133 6.02801 29.8613C6.38123 29.5093 6.81634 29.3333 7.33334 29.3333H29.3333C29.8528 29.3333 30.2885 29.5093 30.6405 29.8613C30.9925 30.2133 31.1679 30.6485 31.1667 31.1667C31.1655 31.6849 30.9895 32.1206 30.6387 32.4738C30.2879 32.8271 29.8528 33.0024 29.3333 33H7.33334ZM8.61667 26.5833C7.73056 26.5833 6.94406 26.2931 6.25717 25.7125C5.57028 25.132 5.14984 24.3986 4.99584 23.5125L3.1625 11.8708C3.10139 11.8708 3.03295 11.8788 2.95717 11.8947C2.88139 11.9106 2.81234 11.9179 2.75 11.9167C1.98612 11.9167 1.33712 11.6496 0.803004 11.1155C0.268893 10.5814 0.00122639 9.93178 4.16667e-06 9.16667C-0.00121806 8.40156 0.266449 7.75256 0.803004 7.21967C1.33956 6.68678 1.98856 6.41912 2.75 6.41667C3.51145 6.41423 4.16106 6.68189 4.69884 7.21967C5.23662 7.75745 5.50367 8.40645 5.5 9.16667C5.5 9.38056 5.47678 9.57917 5.43034 9.7625C5.38389 9.94584 5.33073 10.1139 5.27084 10.2667L11 12.8333L16.7292 4.99584C16.3931 4.75139 16.1181 4.43056 15.9042 4.03334C15.6903 3.63612 15.5833 3.20834 15.5833 2.75C15.5833 1.98612 15.851 1.3365 16.3863 0.801171C16.9217 0.265838 17.5707 -0.00121805 18.3333 4.17616e-06C19.096 0.0012264 19.7456 0.268893 20.2822 0.803004C20.8187 1.33712 21.0858 1.98612 21.0833 2.75C21.0833 3.20834 20.9764 3.63612 20.7625 4.03334C20.5486 4.43056 20.2736 4.75139 19.9375 4.99584L25.6667 12.8333L31.3958 10.2667C31.3347 10.1139 31.281 9.94584 31.2345 9.7625C31.1881 9.57917 31.1655 9.38056 31.1667 9.16667C31.1667 8.40278 31.4343 7.75317 31.9697 7.21784C32.505 6.6825 33.154 6.41545 33.9167 6.41667C34.6793 6.41789 35.3289 6.68556 35.8655 7.21967C36.4021 7.75378 36.6691 8.40278 36.6667 9.16667C36.6642 9.93056 36.3972 10.5802 35.8655 11.1155C35.3338 11.6508 34.6842 11.9179 33.9167 11.9167C33.8556 11.9167 33.7871 11.9093 33.7113 11.8947C33.6356 11.88 33.5665 11.8721 33.5042 11.8708L31.6708 23.5125C31.5181 24.3986 31.0982 25.132 30.4113 25.7125C29.7244 26.2931 28.9373 26.5833 28.05 26.5833H8.61667Z" fill="#FFC445"/>
</svg>
