<svg width="45" height="33" viewBox="0 0 45 33" fill="none" xmlns="http://www.w3.org/2000/svg">
<path d="M44.9529 9.13835C45.2556 7.36989 44.0669 5.69099 42.2979 5.38843L11.0682 0.047049C9.29926 -0.255511 7.61986 0.932841 7.31721 2.70131L4.57723 18.7118C4.27458 20.4802 5.46329 22.1591 7.23228 22.4617L38.4619 27.8031C40.2309 28.1056 41.9103 26.9173 42.213 25.1488L44.9529 9.13835Z" fill="#77AFFD" fill-opacity="0.5"/>
<path d="M43.6831 10.2603C43.8528 8.47421 42.542 6.88875 40.7553 6.71911L6.78761 3.49395C5.00096 3.32431 3.41503 4.63473 3.24534 6.42085L1.55547 24.2082C1.38578 25.9943 2.69659 27.5798 4.48324 27.7494L38.451 30.9746C40.2376 31.1442 41.8236 29.8338 41.9932 28.0477L43.6831 10.2603Z" fill="#1575FB" fill-opacity="0.7"/>
<path d="M42.2445 11.0718C42.2445 9.27767 40.7896 7.82321 38.995 7.82321H3.24958C1.45489 7.82321 0 9.27767 0 11.0718V29.7514C0 31.5455 1.45489 33 3.24958 33H38.995C40.7896 33 42.2445 31.5455 42.2445 29.7514V11.0718Z" fill="#1575FB" fill-opacity="0.85"/>
<path d="M10.0105 22.2088V18.7635H12.3954V19.425H10.8198V20.153H12.2716V20.8145H10.8198V21.5474H12.4001V22.2088H10.0105Z" fill="#FDFDFE"/>
<path d="M15.2038 20.0055C15.1562 19.6534 14.904 19.4297 14.5184 19.4297C14.0091 19.4297 13.6996 19.8152 13.6996 20.4862C13.6996 21.1809 14.0186 21.5426 14.5136 21.5426C14.8849 21.5426 15.142 21.3427 15.2038 21.0049L16.0226 21.0096C15.9559 21.6235 15.4323 22.2564 14.4993 22.2564C13.5664 22.2564 12.8714 21.6187 12.8714 20.4862C12.8714 19.3488 13.5806 18.7159 14.4993 18.7159C15.3276 18.7159 15.9369 19.1823 16.0226 20.0055H15.2038Z" fill="#FDFDFE"/>
<path d="M19.726 20.4862C19.726 21.6235 19.0119 22.2564 18.0885 22.2564C17.1603 22.2564 16.451 21.6187 16.451 20.4862C16.451 19.3488 17.1603 18.7159 18.0885 18.7159C19.0119 18.7159 19.726 19.3488 19.726 20.4862ZM18.8977 20.4862C18.8977 19.8009 18.5931 19.4297 18.0885 19.4297C17.5839 19.4297 17.2793 19.8009 17.2793 20.4862C17.2793 21.1714 17.5839 21.5426 18.0885 21.5426C18.5931 21.5426 18.8977 21.1714 18.8977 20.4862Z" fill="#FDFDFE"/>
<path d="M23.1295 18.7635V22.2088H22.4392L21.0398 20.1864H21.016V22.2088H20.2067V18.7635H20.9065L22.2917 20.786H22.3202V18.7635H23.1295Z" fill="#FDFDFE"/>
<path d="M23.6531 22.2088V18.7635H25.9903V19.425H24.4623V20.153H25.838V20.8145H24.4623V22.2088H23.6531Z" fill="#FDFDFE"/>
<path d="M26.4092 22.2088V18.7635H27.2184V21.5474H28.6655V22.2088H26.4092Z" fill="#FDFDFE"/>
<path d="M29.8984 18.7635V22.2088H29.0891V18.7635H29.8984Z" fill="#FDFDFE"/>
<path d="M30.422 22.2088V18.7635H31.831C32.6069 18.7635 33.0829 19.2489 33.0829 19.9484C33.0829 20.6622 32.5973 21.1286 31.8072 21.1286H31.2312V22.2088H30.422ZM31.2312 20.4862H31.6596C32.0404 20.4862 32.2451 20.272 32.2451 19.9484C32.2451 19.6248 32.0404 19.4202 31.6596 19.4202H31.2312V20.4862Z" fill="#FDFDFE"/>
<path d="M39.8074 11.4779C39.8074 12.1507 39.2618 12.6961 38.5888 12.6961C37.9157 12.6961 37.3702 12.1507 37.3702 11.4779C37.3702 10.8051 37.9157 10.2597 38.5888 10.2597C39.2618 10.2597 39.8074 10.8051 39.8074 11.4779Z" fill="#FFC445"/>
</svg>
