<svg width="197" height="189" viewBox="0 0 197 189" fill="none" xmlns="http://www.w3.org/2000/svg">
<path d="M178.745 90.0382C181.313 84.457 178.871 77.851 173.292 75.2834L74.7927 29.9553C69.2133 27.3877 62.6086 29.8307 60.0409 35.412L36.7941 85.9407C34.2264 91.5219 36.6678 98.1279 42.2473 100.695L140.747 146.024C146.326 148.591 152.931 146.148 155.498 140.567L178.745 90.0382Z" fill="#77AFFD" fill-opacity="0.5"/>
<path d="M173.553 92.6245C175.697 86.8671 172.769 80.4621 167.014 78.3185L57.5877 37.5646C51.8321 35.421 45.4283 38.3506 43.2844 44.108L21.9341 101.444C19.7902 107.201 22.7181 113.606 28.4737 115.75L137.9 156.504C143.655 158.648 150.059 155.718 152.203 149.961L173.553 92.6245Z" fill="#1575FB" fill-opacity="0.7"/>
<path d="M168.079 94.0344C169.669 88.1001 166.148 82.0007 160.216 80.4111L42.0555 48.7501C36.123 47.1605 30.0247 50.6826 28.4346 56.6169L11.8796 118.401C10.2895 124.335 13.8098 130.434 19.7424 132.024L137.903 163.685C143.835 165.275 149.934 161.753 151.524 155.818L168.079 94.0344Z" fill="#1575FB" fill-opacity="0.85"/>
<path d="M51.6553 102.32L54.7087 90.9243L62.592 93.0366L62.0058 95.2244L56.7975 93.8289L56.1522 96.2371L60.9514 97.523L60.3652 99.7108L55.566 98.4249L54.9165 100.849L60.1406 102.249L59.5543 104.436L51.6553 102.32Z" fill="#FDFDFE"/>
<path d="M70.775 99.6323C70.9298 98.4253 70.294 97.4621 69.0195 97.1206C67.3358 96.6695 65.9714 97.6703 65.3767 99.8896C64.761 102.188 65.4947 103.666 67.1312 104.105C68.3585 104.434 69.3853 104 69.8893 102.938L72.5916 103.679C71.8272 105.65 69.5354 107.28 66.4514 106.453C63.3673 105.627 61.6351 102.902 62.6388 99.156C63.6468 95.3942 66.5523 93.929 69.5891 94.7428C72.3271 95.4764 73.9278 97.5586 73.4815 100.357L70.775 99.6323Z" fill="#FDFDFE"/>
<path d="M85.2974 105.227C84.2895 108.989 81.3683 110.45 78.3156 109.632C75.2473 108.81 73.4679 106.073 74.4717 102.327C75.4796 98.5648 78.3851 97.0996 81.4534 97.9218C84.506 98.7398 86.3054 101.466 85.2974 105.227ZM82.5595 104.494C83.1668 102.227 82.4887 100.73 80.8208 100.283C79.1529 99.8359 77.8169 100.794 77.2096 103.06C76.6023 105.327 77.2803 106.824 78.9483 107.271C80.6162 107.718 81.9522 106.76 82.5595 104.494Z" fill="#FDFDFE"/>
<path d="M98.0748 102.544L95.0213 113.94L92.7397 113.328L89.906 105.399L89.8273 105.378L88.0349 112.068L85.36 111.351L88.4134 99.9554L90.7265 100.575L93.513 108.492L93.6074 108.517L95.3998 101.827L98.0748 102.544Z" fill="#FDFDFE"/>
<path d="M96.7522 114.404L99.8056 103.008L107.532 105.078L106.945 107.266L101.894 105.913L101.249 108.321L105.797 109.539L105.21 111.727L100.663 110.509L99.4272 115.12L96.7522 114.404Z" fill="#FDFDFE"/>
<path d="M105.863 116.845L108.916 105.449L111.591 106.166L109.124 115.374L113.908 116.655L113.321 118.843L105.863 116.845Z" fill="#FDFDFE"/>
<path d="M120.45 108.54L117.397 119.935L114.722 119.218L117.775 107.823L120.45 108.54Z" fill="#FDFDFE"/>
<path d="M119.128 120.399L122.181 109.003L126.839 110.251C129.403 110.939 130.547 112.966 129.927 115.279C129.294 117.64 127.276 118.753 124.664 118.053L122.76 117.543L121.803 121.116L119.128 120.399ZM123.329 115.418L124.745 115.797C126.004 116.135 126.871 115.608 127.157 114.537C127.444 113.467 126.949 112.609 125.69 112.272L124.274 111.892L123.329 115.418Z" fill="#FDFDFE"/>
<path d="M159.662 93.2188C159.066 95.4442 156.779 96.765 154.554 96.1688C152.33 95.5727 151.01 93.2855 151.606 91.0601C152.202 88.8348 154.489 87.514 156.714 88.1101C158.939 88.7062 160.259 90.9935 159.662 93.2188Z" fill="#FFC445"/>
</svg>
