<svg width="48" height="48" viewBox="0 0 48 48" fill="none" xmlns="http://www.w3.org/2000/svg">
<rect width="48" height="48" rx="24" fill="#9FC6FD"/>
<path d="M24 17.6677C26.9174 17.6677 29.7153 18.7914 31.7782 20.7917C33.8411 22.792 35 25.505 35 28.3338C35 31.1627 33.8411 33.8757 31.7782 35.876C29.7153 37.8762 26.9174 39 24 39C21.0826 39 18.2847 37.8762 16.2218 35.876C14.1589 33.8757 13 31.1627 13 28.3338C13 25.505 14.1589 22.792 16.2218 20.7917C18.2847 18.7914 21.0826 17.6677 24 17.6677ZM24 22.3341L22.1823 25.9073L18.115 26.4806L21.0575 29.2605L20.3631 33.1883L24 31.3337L27.6369 33.1869L26.9425 29.2605L29.885 26.4793L25.8177 25.906L24 22.3341ZM25.375 11L32.25 11.0013V15.0011L30.3759 16.5184C28.821 15.7266 27.1229 15.234 25.375 15.0678V11ZM22.625 11V15.0665C20.8776 15.2328 19.1799 15.7254 17.6255 16.5171L15.75 15.0011V11.0013L22.625 11Z" fill="#1575FB"/>
</svg>
