<svg width="48" height="48" viewBox="0 0 48 48" fill="none" xmlns="http://www.w3.org/2000/svg">
<rect width="48" height="48" rx="24" fill="#E8EBED"/>
<path d="M32 11C32.0004 10.8019 31.9419 10.6082 31.8321 10.4435C31.7222 10.2787 31.5659 10.1502 31.3829 10.0744C31.2 9.99855 30.9986 9.97875 30.8044 10.0175C30.6102 10.0562 30.4319 10.1517 30.292 10.292L26.292 14.292C26.1992 14.385 26.1257 14.4954 26.0755 14.6169C26.0254 14.7384 25.9998 14.8685 26 15V20.586L24.518 22.066C24.2215 21.9873 23.911 21.9777 23.6102 22.038C23.3095 22.0983 23.0266 22.2268 22.7833 22.4136C22.54 22.6004 22.3429 22.8406 22.2071 23.1157C22.0713 23.3907 22.0005 23.6932 22 24C22.0001 24.2846 22.061 24.5659 22.1786 24.8251C22.2961 25.0843 22.4677 25.3155 22.6817 25.5031C22.8958 25.6907 23.1474 25.8305 23.4198 25.913C23.6922 25.9956 23.979 26.0191 24.2612 25.9819C24.5434 25.9447 24.8144 25.8478 25.0561 25.6975C25.2978 25.5472 25.5047 25.347 25.6628 25.1103C25.821 24.8737 25.9268 24.606 25.9732 24.3252C26.0197 24.0444 26.0056 23.7569 25.932 23.482L27.414 22H33C33.1314 22.0002 33.2616 21.9745 33.3831 21.9244C33.5046 21.8743 33.615 21.8008 33.708 21.708L37.708 17.708C37.8482 17.5681 37.9438 17.3898 37.9825 17.1955C38.0212 17.0013 38.0014 16.8 37.9256 16.617C37.8497 16.4341 37.7213 16.2778 37.5565 16.1679C37.3917 16.0581 37.1981 15.9996 37 16H32V11ZM35.888 22.356C35.9627 22.892 36 23.44 36 24C35.9997 26.4436 35.2534 28.829 33.8608 30.837C32.4682 32.8451 30.4958 34.3801 28.2072 35.2368C25.9186 36.0936 23.423 36.2312 21.0541 35.6313C18.6852 35.0314 16.556 33.7226 14.951 31.8799C13.3461 30.0371 12.3419 27.7483 12.0729 25.3195C11.8039 22.8907 12.2829 20.4376 13.4457 18.2883C14.6085 16.1391 16.3998 14.396 18.58 13.2923C20.7602 12.1886 23.2254 11.7768 25.646 12.112L24.88 12.878C24.6011 13.1565 24.3798 13.4873 24.2289 13.8514C24.0779 14.2155 24.0001 14.6058 24 15C22.22 15 20.4799 15.5278 18.9999 16.5167C17.5198 17.5057 16.3663 18.9113 15.6851 20.5558C15.0039 22.2003 14.8257 24.0099 15.1729 25.7558C15.5202 27.5016 16.3774 29.1052 17.636 30.3639C18.8947 31.6226 20.4984 32.4798 22.2442 32.827C23.99 33.1743 25.7996 32.9961 27.4442 32.3149C29.0887 31.6337 30.4943 30.4801 31.4832 29.0001C32.4722 27.52 33 25.78 33 24C33.7954 23.9993 34.5579 23.6827 35.12 23.12L35.888 22.356ZM24 17C22.6155 17 21.2622 17.4105 20.111 18.1797C18.9599 18.9488 18.0627 20.0421 17.5329 21.3212C17.003 22.6003 16.8644 24.0077 17.1345 25.3656C17.4046 26.7235 18.0713 27.9707 19.0503 28.9497C20.0292 29.9287 21.2765 30.5954 22.6344 30.8655C23.9922 31.1356 25.3997 30.9969 26.6788 30.4671C27.9579 29.9373 29.0511 29.0401 29.8203 27.889C30.5895 26.7378 31 25.3844 31 24H28.242L27.992 24.25C27.9439 25.0183 27.6752 25.7565 27.2179 26.3758C26.7607 26.9952 26.1345 27.4694 25.4144 27.7417C24.6942 28.0139 23.9109 28.0726 23.1583 27.9106C22.4056 27.7487 21.7158 27.3729 21.1714 26.8286C20.627 26.2842 20.2513 25.5943 20.0893 24.8417C19.9274 24.0891 19.986 23.3057 20.2583 22.5856C20.5305 21.8655 21.0048 21.2393 21.6242 20.782C22.2435 20.3248 22.9817 20.056 23.75 20.008L24 19.758V17Z" fill="#C9CDD2"/>
</svg>
