<svg width="82" height="82" viewBox="0 0 82 82" fill="none" xmlns="http://www.w3.org/2000/svg">
<g filter="url(#filter0_iiii_576_24335)">
<path fill-rule="evenodd" clip-rule="evenodd" d="M40.95 6.38367e-05C32.6326 6.38367e-05 24.4653 0.678014 16.5119 1.97931C15.7131 2.10991 14.9866 2.52024 14.4624 3.13701C13.9381 3.75378 13.6502 4.53684 13.65 5.34631V7.10716C9.88867 7.82 6.18042 8.6754 2.52525 9.67336C1.82242 9.86528 1.19946 10.2771 0.747531 10.8486C0.295603 11.42 0.0384317 12.1211 0.0136502 12.8493L9.78345e-08 13.6501C-0.000523121 19.295 2.0976 24.7385 5.88665 28.9227C9.67569 33.107 14.885 35.7331 20.5023 36.2909C24.0582 40.3119 28.7206 43.1955 33.9066 44.581C33.4746 48.0795 32.4206 51.4725 30.7944 54.6001H29.575C27.7649 54.6001 26.0289 55.3191 24.749 56.5991C23.4691 57.879 22.75 59.615 22.75 61.4251V72.8001H19.3375C16.198 72.8001 13.65 75.3481 13.65 78.4876C13.65 80.3713 15.1788 81.9001 17.0625 81.9001H64.8375C65.7425 81.9001 66.6105 81.5405 67.2505 80.9006C67.8905 80.2606 68.25 79.3926 68.25 78.4876C68.25 75.3481 65.702 72.8001 62.5625 72.8001H59.15V61.4251C59.15 59.615 58.4309 57.879 57.151 56.5991C55.8711 55.3191 54.1351 54.6001 52.325 54.6001H51.1056C49.4794 51.4725 48.4254 48.0795 47.9934 44.581C53.1793 43.1955 57.8418 40.3119 61.3977 36.2909C67.1526 35.7196 72.474 32.9781 76.2799 28.6237C80.0858 24.2693 82.0904 18.6289 81.8863 12.8493C81.8616 12.1211 81.6044 11.42 81.1525 10.8486C80.7005 10.2771 80.0776 9.86528 79.3747 9.67336C75.7015 8.67285 71.9904 7.81679 68.25 7.10716V5.34631C68.2498 4.53684 67.9619 3.75378 67.4376 3.13701C66.9134 2.52024 66.1869 2.10991 65.388 1.97931C57.3096 0.654471 49.1363 -0.00748496 40.95 6.38367e-05ZM6.93875 15.5702C9.15308 15.0181 11.3902 14.5146 13.65 14.0596V18.2001C13.65 21.5671 14.2597 24.7885 15.379 27.7687C13.0885 26.5733 11.1233 24.8386 9.65281 22.7142C8.18237 20.5897 7.25089 18.1349 6.93875 15.5702ZM74.9613 15.5747C74.6496 18.139 73.7188 20.589 72.2492 22.7134C70.7795 24.8378 68.8152 26.5728 66.5256 27.7687C67.6683 24.708 68.2524 21.4671 68.25 18.2001V14.0596C70.5068 14.5115 72.7439 15.0196 74.9613 15.5747Z" fill="url(#paint0_linear_576_24335)"/>
</g>
<defs>
<filter id="filter0_iiii_576_24335" x="-2" y="-4" width="87.9004" height="89.9004" filterUnits="userSpaceOnUse" color-interpolation-filters="sRGB">
<feFlood flood-opacity="0" result="BackgroundImageFix"/>
<feBlend mode="normal" in="SourceGraphic" in2="BackgroundImageFix" result="shape"/>
<feColorMatrix in="SourceAlpha" type="matrix" values="0 0 0 0 0 0 0 0 0 0 0 0 0 0 0 0 0 0 127 0" result="hardAlpha"/>
<feOffset dx="4" dy="4"/>
<feGaussianBlur stdDeviation="6"/>
<feComposite in2="hardAlpha" operator="arithmetic" k2="-1" k3="1"/>
<feColorMatrix type="matrix" values="0 0 0 0 1 0 0 0 0 0.25 0 0 0 0 0 0 0 0 0.25 0"/>
<feBlend mode="normal" in2="shape" result="effect1_innerShadow_576_24335"/>
<feColorMatrix in="SourceAlpha" type="matrix" values="0 0 0 0 0 0 0 0 0 0 0 0 0 0 0 0 0 0 127 0" result="hardAlpha"/>
<feOffset dx="-2" dy="-4"/>
<feGaussianBlur stdDeviation="6"/>
<feComposite in2="hardAlpha" operator="arithmetic" k2="-1" k3="1"/>
<feColorMatrix type="matrix" values="0 0 0 0 0.974102 0 0 0 0 0.549199 0 0 0 0 0.0298736 0 0 0 1 0"/>
<feBlend mode="normal" in2="effect1_innerShadow_576_24335" result="effect2_innerShadow_576_24335"/>
<feColorMatrix in="SourceAlpha" type="matrix" values="0 0 0 0 0 0 0 0 0 0 0 0 0 0 0 0 0 0 127 0" result="hardAlpha"/>
<feOffset dx="2" dy="2"/>
<feGaussianBlur stdDeviation="3"/>
<feComposite in2="hardAlpha" operator="arithmetic" k2="-1" k3="1"/>
<feColorMatrix type="matrix" values="0 0 0 0 1 0 0 0 0 1 0 0 0 0 1 0 0 0 0.5 0"/>
<feBlend mode="normal" in2="effect2_innerShadow_576_24335" result="effect3_innerShadow_576_24335"/>
<feColorMatrix in="SourceAlpha" type="matrix" values="0 0 0 0 0 0 0 0 0 0 0 0 0 0 0 0 0 0 127 0" result="hardAlpha"/>
<feOffset dx="-1" dy="-2"/>
<feGaussianBlur stdDeviation="3"/>
<feComposite in2="hardAlpha" operator="arithmetic" k2="-1" k3="1"/>
<feColorMatrix type="matrix" values="0 0 0 0 0.972549 0 0 0 0 0.54902 0 0 0 0 0.0313726 0 0 0 0.3 0"/>
<feBlend mode="normal" in2="effect3_innerShadow_576_24335" result="effect4_innerShadow_576_24335"/>
</filter>
<linearGradient id="paint0_linear_576_24335" x1="24.6272" y1="-0.0609723" x2="69.7191" y2="79.9211" gradientUnits="userSpaceOnUse">
<stop stop-color="#FFCE65"/>
<stop offset="1" stop-color="#FFAF00"/>
</linearGradient>
</defs>
</svg>
