<svg width="31" height="31" viewBox="0 0 31 31" fill="none" xmlns="http://www.w3.org/2000/svg">
<path fill-rule="evenodd" clip-rule="evenodd" d="M11.4407 0.541619C14.489 -0.286072 17.7173 -0.162714 20.6935 0.895177C23.6697 1.95307 26.2517 3.89499 28.0937 6.46094V3.38987C28.0937 3.00446 28.2468 2.63483 28.5193 2.36231C28.7918 2.08978 29.1615 1.93668 29.5469 1.93668C29.9323 1.93668 30.3019 2.08978 30.5744 2.36231C30.8469 2.63483 31 3.00446 31 3.38987V11.6246H22.7655C22.3801 11.6246 22.0105 11.4715 21.738 11.199C21.4655 10.9264 21.3124 10.5568 21.3124 10.1714C21.3124 9.78601 21.4655 9.41638 21.738 9.14386C22.0105 8.87133 22.3801 8.71823 22.7655 8.71823H26.1116C24.5939 6.34369 22.3237 4.54682 19.6641 3.61508C17.0045 2.68333 14.1092 2.67055 11.4415 3.57877C8.77381 4.487 6.48778 6.26375 4.94915 8.62479C3.41052 10.9858 2.7082 13.7947 2.95456 16.6021C3.20091 19.4095 4.38169 22.0531 6.30801 24.1101C8.23432 26.167 10.7949 27.5185 13.58 27.9482C16.3651 28.3779 19.2139 27.861 21.6705 26.4803C24.1272 25.0995 26.0498 22.9347 27.1308 20.3321C27.2009 20.1517 27.3065 19.9871 27.4411 19.848C27.5758 19.7089 27.7369 19.5981 27.9149 19.5222C28.093 19.4462 28.2845 19.4066 28.4781 19.4057C28.6717 19.4047 28.8635 19.4425 29.0423 19.5167C29.2211 19.5909 29.3832 19.7001 29.5192 19.8379C29.6552 19.9757 29.7624 20.1393 29.8343 20.319C29.9062 20.4988 29.9415 20.6911 29.938 20.8846C29.9346 21.0782 29.8925 21.2691 29.8142 21.4462C28.8044 23.877 27.1922 26.0106 25.1297 27.6458C23.0672 29.2811 20.6222 30.3641 18.0252 30.7929C15.4283 31.2217 12.7649 30.9821 10.2862 30.0967C7.80747 29.2113 5.59504 27.7092 3.85746 25.7321C2.11988 23.7549 0.914377 21.3679 0.354596 18.7959C-0.205185 16.2239 -0.100809 13.5518 0.657887 11.0313C1.41658 8.51083 2.80461 6.22508 4.69111 4.38952C6.57762 2.55396 8.90048 1.23099 11.4407 0.541619Z" fill="#E8F1FF"/>
</svg>
