<svg width="18" height="18" viewBox="0 0 18 18" fill="none" xmlns="http://www.w3.org/2000/svg">
<path fill-rule="evenodd" clip-rule="evenodd" d="M6.64299 0.314488C8.41294 -0.166107 10.2875 -0.0944791 12.0156 0.51978C13.7437 1.13404 15.2429 2.26161 16.3125 3.75151V1.96831C16.3125 1.74452 16.4014 1.5299 16.5596 1.37166C16.7178 1.21342 16.9325 1.12452 17.1562 1.12452C17.38 1.12452 17.5946 1.21342 17.7529 1.37166C17.9111 1.5299 18 1.74452 18 1.96831V6.74977H13.2187C12.9949 6.74977 12.7803 6.66087 12.6221 6.50263C12.4638 6.34439 12.3749 6.12977 12.3749 5.90598C12.3749 5.6822 12.4638 5.46758 12.6221 5.30934C12.7803 5.15109 12.9949 5.0622 13.2187 5.0622H15.1616C14.2803 3.68344 12.9621 2.64009 11.4178 2.09908C9.87357 1.55806 8.19246 1.55064 6.64346 2.078C5.09447 2.60536 3.7671 3.63702 2.8737 5.00794C1.9803 6.37887 1.57251 8.00984 1.71555 9.63992C1.85859 11.27 2.54421 12.805 3.66271 13.9994C4.78122 15.1938 6.26798 15.9785 7.88515 16.228C9.50231 16.4775 11.1564 16.1774 12.5829 15.3756C14.0093 14.5739 15.1257 13.3169 15.7533 11.8057C15.7941 11.701 15.8554 11.6054 15.9336 11.5246C16.0117 11.4439 16.1053 11.3796 16.2087 11.3355C16.3121 11.2913 16.4232 11.2683 16.5356 11.2678C16.6481 11.2673 16.7594 11.2892 16.8633 11.3323C16.9671 11.3754 17.0612 11.4388 17.1402 11.5188C17.2192 11.5988 17.2814 11.6938 17.3231 11.7981C17.3649 11.9025 17.3854 12.0142 17.3834 12.1266C17.3814 12.239 17.3569 12.3498 17.3115 12.4526C16.7251 13.8641 15.789 15.1029 14.5914 16.0524C13.3938 17.0019 11.9742 17.6308 10.4663 17.8798C8.95836 18.1287 7.41189 17.9896 5.97263 17.4755C4.53337 16.9614 3.24873 16.0892 2.23982 14.9412C1.2309 13.7932 0.530929 12.4072 0.205894 10.9138C-0.11914 9.42035 -0.0585341 7.86877 0.381999 6.40527C0.822532 4.94177 1.62848 3.61456 2.72387 2.54875C3.81927 1.48294 5.16802 0.714766 6.64299 0.314488Z" fill="#FFCE65"/>
</svg>
