<svg width="48" height="48" viewBox="0 0 48 48" fill="none" xmlns="http://www.w3.org/2000/svg">
<rect width="48" height="48" rx="24" fill="#9FC6FD"/>
<path d="M24.0008 15.7013C23.5605 15.0653 22.9647 14.5526 22.2702 14.212C21.6782 13.9093 21.0382 13.784 20.3102 13.724C19.6008 13.6666 18.7275 13.6666 17.6435 13.6666H14.1342C13.2448 13.6666 12.3515 13.812 11.7302 14.4573C11.1155 15.0946 11.0008 15.9773 11.0008 16.8V28.6493C10.9982 28.9746 10.9955 29.4546 11.1022 29.8973C11.2395 30.4666 11.5688 31.0533 12.2755 31.412C12.5822 31.5693 12.8928 31.6213 13.1755 31.6453C13.4395 31.6666 13.7542 31.6666 14.0955 31.6666H17.9088C19.3302 31.6666 20.1942 31.9706 20.8942 32.488C21.6448 33.044 22.2888 33.9013 23.1688 35.2213C23.2602 35.3583 23.3839 35.4705 23.529 35.5482C23.6742 35.6259 23.8362 35.6665 24.0008 35.6665C24.1654 35.6665 24.3275 35.6259 24.4727 35.5482C24.6178 35.4705 24.7415 35.3583 24.8328 35.2213C25.7128 33.9013 26.3582 33.044 27.1075 32.488C27.8075 31.9706 28.6715 31.6666 30.0942 31.6666H33.9048C34.2475 31.6666 34.5622 31.6666 34.8248 31.6453C35.1381 31.6273 35.4448 31.548 35.7275 31.412C36.4328 31.0533 36.7635 30.4653 36.9008 29.8973C37.0075 29.4546 37.0035 28.9733 37.0008 28.648V16.8C37.0008 15.9773 36.8862 15.0933 36.2715 14.4573C35.6488 13.812 34.7555 13.6666 33.8675 13.6666H30.3582C29.2742 13.6666 28.3995 13.6666 27.6915 13.724C26.9635 13.784 26.3222 13.9106 25.7315 14.212C25.037 14.5526 24.4412 15.0653 24.0008 15.7013Z" fill="#1575FB"/>
</svg>
