<svg width="22" height="26" viewBox="0 0 22 26" fill="none" xmlns="http://www.w3.org/2000/svg">
<path d="M8.45833 2.41667C8.11597 2.41667 7.8292 2.30067 7.598 2.06867C7.36681 1.83667 7.25081 1.54989 7.25 1.20833C7.24919 0.866778 7.36519 0.58 7.598 0.348C7.83081 0.116 8.11758 0 8.45833 0H13.2917C13.634 0 13.9212 0.116 14.1532 0.348C14.3852 0.58 14.5008 0.866778 14.5 1.20833C14.4992 1.54989 14.3832 1.83707 14.152 2.06988C13.9208 2.30268 13.634 2.41828 13.2917 2.41667H8.45833ZM10.875 15.7083C11.2174 15.7083 11.5045 15.5923 11.7365 15.3603C11.9685 15.1283 12.0841 14.8416 12.0833 14.5V9.66667C12.0833 9.32431 11.9673 9.03753 11.7353 8.80633C11.5033 8.57514 11.2166 8.45914 10.875 8.45833C10.5334 8.45753 10.2467 8.57353 10.0147 8.80633C9.78267 9.03914 9.66667 9.32592 9.66667 9.66667V14.5C9.66667 14.8424 9.78267 15.1295 10.0147 15.3615C10.2467 15.5935 10.5334 15.7091 10.875 15.7083ZM10.875 25.375C9.38472 25.375 7.97983 25.0882 6.66033 24.5147C5.34083 23.9411 4.18808 23.1605 3.20208 22.1729C2.21608 21.1853 1.4359 20.0322 0.861542 18.7135C0.287181 17.3948 0 15.9903 0 14.5C0 13.0097 0.287181 11.6048 0.861542 10.2853C1.4359 8.96583 2.21608 7.81308 3.20208 6.82708C4.18808 5.84108 5.34124 5.0609 6.66154 4.48654C7.98185 3.91218 9.38633 3.625 10.875 3.625C12.1236 3.625 13.3219 3.82639 14.4698 4.22917C15.6177 4.63194 16.6951 5.21597 17.7021 5.98125L18.5479 5.13542C18.7694 4.91389 19.0514 4.80312 19.3937 4.80312C19.7361 4.80312 20.0181 4.91389 20.2396 5.13542C20.4611 5.35694 20.5719 5.63889 20.5719 5.98125C20.5719 6.32361 20.4611 6.60556 20.2396 6.82708L19.3937 7.67292C20.159 8.67986 20.7431 9.75729 21.1458 10.9052C21.5486 12.0531 21.75 13.2514 21.75 14.5C21.75 15.9903 21.4628 17.3952 20.8885 18.7147C20.3141 20.0342 19.5339 21.1869 18.5479 22.1729C17.5619 23.1589 16.4088 23.9395 15.0885 24.5147C13.7682 25.0898 12.3637 25.3766 10.875 25.375ZM10.875 22.9583C13.2111 22.9583 15.2049 22.1326 16.8563 20.4813C18.5076 18.8299 19.3333 16.8361 19.3333 14.5C19.3333 12.1639 18.5076 10.1701 16.8563 8.51875C15.2049 6.86736 13.2111 6.04167 10.875 6.04167C8.53889 6.04167 6.54514 6.86736 4.89375 8.51875C3.24236 10.1701 2.41667 12.1639 2.41667 14.5C2.41667 16.8361 3.24236 18.8299 4.89375 20.4813C6.54514 22.1326 8.53889 22.9583 10.875 22.9583Z" fill="#72787F"/>
</svg>
